<svg width="1274" height="468" viewBox="0 0 1274 468" fill="none" xmlns="http://www.w3.org/2000/svg">
<rect width="1274" height="468" rx="50" fill="#002F32"/>
<path d="M236.395 182.337C242.845 184.757 250.762 187.764 253.987 188.938C257.212 190.185 262.563 192.458 265.935 193.998L271.946 196.859V218.86V240.936H223.933H175.921L176.067 218.494L176.287 196.052L186.549 191.798C200.11 186.151 198.937 186.664 211.472 181.971C217.556 179.77 222.98 177.937 223.567 177.864C224.153 177.864 229.944 179.844 236.395 182.337Z" fill="white"/>
<path d="M163.459 297.774C163.459 349.992 163.313 392.749 163.166 392.749C131.265 392.925 77.5501 371.114 70 347.792L70.2199 305.621L70 263.451L73.2986 260.811C75.1311 259.344 77.037 257.73 77.5501 257.29C78.7962 256.044 91.5506 246.29 95.8754 243.283C97.7813 241.889 101.446 239.249 104.085 237.415C113.981 230.301 132.526 219.154 151.365 209.033C155.836 206.613 160.088 204.266 160.894 203.826C161.7 203.312 162.58 202.946 162.946 202.872C163.24 202.799 163.459 245.556 163.459 297.774Z" fill="white"/>
<path d="M288.072 204.046C289.098 204.779 292.69 206.833 296.135 208.74C309.623 216 319.445 221.574 323.77 224.361C326.189 226.048 331.687 229.495 335.865 232.135C344.148 237.342 365.625 253.33 370.976 258.171C372.809 259.857 375.008 261.691 375.887 262.131L377.5 263.011L377.353 305.328L377.5 347.792C371.489 373.186 310.246 392.529 285.36 392.529C285.213 392.309 285.067 312.589 285.14 215.78C285.14 208.666 285.36 202.799 285.726 202.799C286.02 202.799 287.119 203.386 288.072 204.046Z" fill="white"/>
<path d="M163.313 128.579L163.459 188.864L154.004 193.632C138.61 201.332 110.609 217.614 101.153 224.288C98.5143 226.194 94.556 228.908 92.357 230.448C86.8593 234.188 74.7646 243.209 71.6859 245.923C70.4398 246.95 70.3665 243.796 70.3665 179.917V112.811C87.0426 85.914 151.218 68.074 162.36 68.074C162.873 68.294 163.166 89.2691 163.313 128.579Z" fill="white"/>
<path d="M377.353 112.811V180.284L377.5 247.61L371.123 242.256C360.567 233.382 352.138 227.441 331.98 214.533C324.943 210.06 299.141 195.905 291.224 192.165L285.14 189.305V128.506C285.14 93.3028 285.433 67.854 285.8 68.0006C296.883 68.0006 358.57 81.917 377.353 112.811Z" fill="white"/>
<path d="M537 230.145V157H544.812V189.227H580.75V157H588.562V230.145H580.75V195.77H544.812V230.145H537Z" fill="white"/>
<path d="M603.406 197.234V190.594H649.5V197.234H603.406Z" fill="white"/>
<path d="M672.254 202.801H699.793L691.199 178.191C690.678 176.694 689.832 174.318 688.66 171.062C687.553 167.742 686.772 165.431 686.316 164.129H685.73C682.996 172.137 681.401 176.824 680.945 178.191L672.254 202.801ZM653.895 230.145L681.238 157H690.809L718.152 230.145H709.559L702.137 209.051H669.91L662.488 230.145H653.895Z" fill="white"/>
<path d="M735.73 191.863H755.457C760.34 191.863 764.083 190.561 766.688 187.957C769.357 185.353 770.691 181.902 770.691 177.605C770.691 173.439 769.292 170.086 766.492 167.547C763.758 164.943 759.819 163.641 754.676 163.641H735.73V191.863ZM727.918 230.145V157H756.434C763.595 157 769.096 158.953 772.938 162.859C776.779 166.701 778.699 171.453 778.699 177.117C778.699 182.26 777.397 186.427 774.793 189.617C772.189 192.807 769.324 194.826 766.199 195.672C768.934 197.104 770.919 198.862 772.156 200.945C773.393 203.029 774.402 205.926 775.184 209.637C776.03 213.283 776.616 215.789 776.941 217.156C777.332 218.458 777.983 220.346 778.895 222.82C779.871 225.294 781.043 227.736 782.41 230.145H773.621C772.514 228.061 771.505 225.848 770.594 223.504C769.747 221.095 769.129 219.142 768.738 217.645C768.348 216.082 767.762 213.608 766.98 210.223C766.134 206.577 764.832 203.712 763.074 201.629C761.382 199.546 758.647 198.504 754.871 198.504H735.73V230.145H727.918Z" fill="white"/>
<path d="M793.934 230.145V157H839.637V163.641H801.746V189.031H835.926V195.574H801.746V223.504H840.418V230.145H793.934Z" fill="white"/>
<path d="M537.492 265.109V261.705H560.174V265.109H550.822V293H546.844V265.109H537.492ZM563.906 293V260.598H567.721V273.6H567.803C568.377 272.506 569.252 271.576 570.428 270.811C571.631 270.045 572.943 269.662 574.365 269.662C576.607 269.662 578.398 270.346 579.738 271.713C581.105 273.08 581.789 275.309 581.789 278.398V293H577.975V278.973C577.975 274.926 576.539 272.902 573.668 272.902C572.055 272.902 570.66 273.586 569.484 274.953C568.309 276.293 567.721 277.893 567.721 279.752V293H563.906ZM586.342 281.557C586.342 278.002 587.312 275.131 589.254 272.943C591.195 270.756 593.684 269.662 596.719 269.662C599.754 269.662 602.174 270.742 603.979 272.902C605.811 275.062 606.727 277.824 606.727 281.188C606.727 281.625 606.699 282.227 606.645 282.992H590.238C590.238 285.07 590.826 286.861 592.002 288.365C593.205 289.842 594.846 290.58 596.924 290.58C599.713 290.58 601.75 289.377 603.035 286.971L606.275 287.996C605.564 289.664 604.402 291.045 602.789 292.139C601.203 293.205 599.234 293.738 596.883 293.738C593.738 293.738 591.195 292.631 589.254 290.416C587.312 288.174 586.342 285.221 586.342 281.557ZM590.32 280.162H602.83C602.83 278.111 602.283 276.375 601.189 274.953C600.096 273.531 598.605 272.82 596.719 272.82C594.805 272.82 593.273 273.559 592.125 275.035C590.977 276.484 590.375 278.193 590.32 280.162ZM619.934 288.447L622.764 286.807C624.377 289.295 626.537 290.539 629.244 290.539C630.775 290.539 632.006 290.252 632.936 289.678C633.865 289.104 634.33 288.297 634.33 287.258C634.33 286.875 634.262 286.52 634.125 286.191C634.016 285.863 633.77 285.562 633.387 285.289C633.031 284.988 632.717 284.756 632.443 284.592C632.197 284.4 631.719 284.182 631.008 283.936C630.324 283.689 629.805 283.512 629.449 283.402C629.121 283.293 628.492 283.088 627.562 282.787C626.578 282.486 625.744 282.186 625.061 281.885C624.404 281.557 623.693 281.146 622.928 280.654C622.189 280.135 621.629 279.492 621.246 278.727C620.863 277.961 620.672 277.086 620.672 276.102C620.672 274.188 621.451 272.643 623.01 271.467C624.596 270.264 626.674 269.662 629.244 269.662C631.104 269.662 632.826 270.154 634.412 271.139C635.998 272.096 637.146 273.271 637.857 274.666L635.273 276.307C634.645 275.35 633.811 274.543 632.771 273.887C631.732 273.203 630.57 272.861 629.285 272.861C627.754 272.861 626.578 273.162 625.758 273.764C624.965 274.338 624.568 275.131 624.568 276.143C624.568 276.744 624.719 277.291 625.02 277.783C625.348 278.248 625.867 278.672 626.578 279.055C627.289 279.41 627.891 279.684 628.383 279.875C628.902 280.066 629.654 280.312 630.639 280.613C631.65 280.914 632.525 281.229 633.264 281.557C634.029 281.885 634.822 282.309 635.643 282.828C636.463 283.348 637.092 283.99 637.529 284.756C637.994 285.521 638.227 286.369 638.227 287.299C638.227 289.104 637.434 290.635 635.848 291.893C634.262 293.123 632.074 293.738 629.285 293.738C627.207 293.738 625.361 293.273 623.748 292.344C622.135 291.414 620.863 290.115 619.934 288.447ZM642.697 293V270.4H646.471V273.518C646.881 272.588 647.619 271.713 648.686 270.893C649.752 270.072 651.078 269.662 652.664 269.662C655.316 269.662 657.203 271.221 658.324 274.338C658.488 273.955 658.721 273.559 659.021 273.148C659.322 272.711 659.746 272.205 660.293 271.631C660.84 271.057 661.564 270.592 662.467 270.236C663.396 269.854 664.395 269.662 665.461 269.662C669.918 269.662 672.146 272.574 672.146 278.398V293H668.291V278.645C668.291 276.758 668.031 275.336 667.512 274.379C666.992 273.395 666.021 272.902 664.6 272.902C663.096 272.902 661.838 273.545 660.826 274.83C659.814 276.088 659.309 277.674 659.309 279.588V293H655.535V278.562C655.535 274.789 654.291 272.902 651.803 272.902C650.189 272.902 648.918 273.504 647.988 274.707C647.059 275.91 646.594 277.482 646.594 279.424V293H642.697ZM680.514 287.012C680.514 287.996 680.924 288.83 681.744 289.514C682.564 290.197 683.672 290.539 685.066 290.539C686.926 290.539 688.498 289.938 689.783 288.734C691.096 287.531 691.752 285.986 691.752 284.1V281.311C690.658 281.584 688.881 281.912 686.42 282.295C682.482 282.951 680.514 284.523 680.514 287.012ZM676.658 287.34C676.658 283.102 679.871 280.49 686.297 279.506C689.086 279.068 690.904 278.713 691.752 278.439V277.168C691.752 275.855 691.287 274.789 690.357 273.969C689.455 273.148 688.17 272.738 686.502 272.738C685.189 272.738 683.918 273.053 682.688 273.682C681.484 274.283 680.473 275.09 679.652 276.102L677.232 274.051C678.354 272.711 679.721 271.645 681.334 270.852C682.947 270.059 684.643 269.662 686.42 269.662C692.518 269.662 695.566 272.67 695.566 278.686V293H691.875V289.596C691.41 290.717 690.521 291.688 689.209 292.508C687.896 293.328 686.352 293.738 684.574 293.738C682.086 293.738 680.145 293.15 678.75 291.975C677.355 290.771 676.658 289.227 676.658 287.34ZM701.555 293V270.4H705.246V273.395C705.684 272.438 706.408 271.576 707.42 270.811C708.432 270.045 709.689 269.662 711.193 269.662C712.342 269.662 713.381 269.854 714.311 270.236V273.723C713.326 273.34 712.287 273.148 711.193 273.148C709.361 273.148 707.939 273.846 706.928 275.24C705.943 276.635 705.451 278.48 705.451 280.777V293H701.555ZM715.664 273.641V270.4H719.479V263.346H723.334V270.4H728.994V273.641H723.334V286.15C723.334 287.436 723.58 288.352 724.072 288.898C724.564 289.445 725.344 289.719 726.41 289.719H729.035V293H725.918C721.625 293 719.479 290.826 719.479 286.479V273.641H715.664ZM740.848 270.4H745.072L748.066 283.484C748.203 284.086 748.395 285.029 748.641 286.314C748.887 287.6 749.092 288.625 749.256 289.391H749.42C750.049 286.492 750.473 284.523 750.691 283.484L753.768 270.4H758.115L761.232 283.648C761.342 284.141 761.533 285.029 761.807 286.314C762.107 287.572 762.34 288.598 762.504 289.391H762.668C762.75 288.953 762.928 288.051 763.201 286.684C763.475 285.289 763.693 284.223 763.857 283.484L766.811 270.4H771.035L764.842 293H760.289L757.213 280.285C756.584 277.359 756.188 275.432 756.023 274.502H755.859C755.395 276.881 754.998 278.809 754.67 280.285L751.635 293H747.041L740.848 270.4ZM776.449 287.012C776.449 287.996 776.859 288.83 777.68 289.514C778.5 290.197 779.607 290.539 781.002 290.539C782.861 290.539 784.434 289.938 785.719 288.734C787.031 287.531 787.688 285.986 787.688 284.1V281.311C786.594 281.584 784.816 281.912 782.355 282.295C778.418 282.951 776.449 284.523 776.449 287.012ZM772.594 287.34C772.594 283.102 775.807 280.49 782.232 279.506C785.021 279.068 786.84 278.713 787.688 278.439V277.168C787.688 275.855 787.223 274.789 786.293 273.969C785.391 273.148 784.105 272.738 782.438 272.738C781.125 272.738 779.854 273.053 778.623 273.682C777.42 274.283 776.408 275.09 775.588 276.102L773.168 274.051C774.289 272.711 775.656 271.645 777.27 270.852C778.883 270.059 780.578 269.662 782.355 269.662C788.453 269.662 791.502 272.67 791.502 278.686V293H787.811V289.596C787.346 290.717 786.457 291.688 785.145 292.508C783.832 293.328 782.287 293.738 780.51 293.738C778.021 293.738 776.08 293.15 774.686 291.975C773.291 290.771 772.594 289.227 772.594 287.34ZM794.701 270.4H799.049L803.438 283.074C804.23 285.371 804.818 287.217 805.201 288.611H805.365C806.158 285.986 806.719 284.141 807.047 283.074L811.189 270.4H815.496L805.898 296.486C805.078 298.756 804.066 300.342 802.863 301.244C801.688 302.174 800.238 302.639 798.516 302.639H797.162V299.439H797.9C799.021 299.439 799.951 299.152 800.689 298.578C801.428 298.004 802.057 296.979 802.576 295.502L803.396 293L794.701 270.4ZM826.816 273.641V270.4H830.631V263.346H834.486V270.4H840.146V273.641H834.486V286.15C834.486 287.436 834.732 288.352 835.225 288.898C835.717 289.445 836.496 289.719 837.562 289.719H840.188V293H837.07C832.777 293 830.631 290.826 830.631 286.479V273.641H826.816ZM847.037 281.721C847.037 284.482 847.652 286.643 848.883 288.201C850.113 289.732 851.617 290.498 853.395 290.498C855.145 290.498 856.635 289.732 857.865 288.201C859.096 286.643 859.711 284.482 859.711 281.721C859.711 278.904 859.096 276.73 857.865 275.199C856.635 273.668 855.145 272.902 853.395 272.902C851.645 272.902 850.141 273.668 848.883 275.199C847.652 276.703 847.037 278.877 847.037 281.721ZM843.1 281.721C843.1 278.303 843.988 275.445 845.766 273.148C847.543 270.824 850.086 269.662 853.395 269.662C856.648 269.662 859.164 270.824 860.941 273.148C862.746 275.445 863.648 278.303 863.648 281.721C863.648 283.143 863.457 284.523 863.074 285.863C862.719 287.203 862.158 288.488 861.393 289.719C860.654 290.922 859.588 291.893 858.193 292.631C856.799 293.369 855.199 293.738 853.395 293.738C851.59 293.738 849.99 293.383 848.596 292.672C847.229 291.934 846.148 290.963 845.355 289.76C844.59 288.557 844.016 287.285 843.633 285.945C843.277 284.578 843.1 283.17 843.1 281.721ZM876.527 273.641V270.4H880.26V267.283C880.26 265.014 880.82 263.332 881.941 262.238C883.09 261.145 884.662 260.598 886.658 260.598H889.816V263.797H887.191C885.141 263.797 884.115 265.068 884.115 267.611V270.4H889.283V273.641H884.115V293H880.26V273.641H876.527ZM893.426 265.93V261.254H897.979V265.93H893.426ZM893.836 293V270.4H897.609V293H893.836ZM904.541 293V270.4H908.314V273.928H908.355C908.711 272.916 909.49 271.959 910.693 271.057C911.924 270.127 913.428 269.662 915.205 269.662C917.365 269.662 919.115 270.332 920.455 271.672C921.822 273.012 922.506 275.254 922.506 278.398V293H918.609V279.014C918.609 274.939 917.188 272.902 914.344 272.902C912.73 272.902 911.336 273.572 910.16 274.912C909.012 276.225 908.438 277.811 908.438 279.67V293H904.541ZM927.018 281.68C927.018 277.961 927.92 275.035 929.725 272.902C931.529 270.742 933.812 269.662 936.574 269.662C938.105 269.662 939.445 270.086 940.594 270.934C941.742 271.781 942.562 272.752 943.055 273.846V260.598H946.869V293H943.178V289.309C942.631 290.566 941.77 291.619 940.594 292.467C939.418 293.314 938.078 293.738 936.574 293.738C935.426 293.738 934.305 293.506 933.211 293.041C932.117 292.604 931.092 291.934 930.135 291.031C929.205 290.102 928.453 288.83 927.879 287.217C927.305 285.604 927.018 283.758 927.018 281.68ZM930.955 281.68C930.955 284.387 931.516 286.533 932.637 288.119C933.758 289.705 935.234 290.498 937.066 290.498C938.762 290.498 940.197 289.705 941.373 288.119C942.549 286.533 943.137 284.387 943.137 281.68C943.137 279.027 942.549 276.908 941.373 275.322C940.225 273.709 938.789 272.902 937.066 272.902C935.207 272.902 933.717 273.709 932.596 275.322C931.502 276.936 930.955 279.055 930.955 281.68ZM960.814 270.4H965.162L969.551 283.074C970.344 285.371 970.932 287.217 971.314 288.611H971.479C972.271 285.986 972.832 284.141 973.16 283.074L977.303 270.4H981.609L972.012 296.486C971.191 298.756 970.18 300.342 968.977 301.244C967.801 302.174 966.352 302.639 964.629 302.639H963.275V299.439H964.014C965.135 299.439 966.064 299.152 966.803 298.578C967.541 298.004 968.17 296.979 968.689 295.502L969.51 293L960.814 270.4ZM986.736 281.721C986.736 284.482 987.352 286.643 988.582 288.201C989.812 289.732 991.316 290.498 993.094 290.498C994.844 290.498 996.334 289.732 997.564 288.201C998.795 286.643 999.41 284.482 999.41 281.721C999.41 278.904 998.795 276.73 997.564 275.199C996.334 273.668 994.844 272.902 993.094 272.902C991.344 272.902 989.84 273.668 988.582 275.199C987.352 276.703 986.736 278.877 986.736 281.721ZM982.799 281.721C982.799 278.303 983.688 275.445 985.465 273.148C987.242 270.824 989.785 269.662 993.094 269.662C996.348 269.662 998.863 270.824 1000.64 273.148C1002.45 275.445 1003.35 278.303 1003.35 281.721C1003.35 283.143 1003.16 284.523 1002.77 285.863C1002.42 287.203 1001.86 288.488 1001.09 289.719C1000.35 290.922 999.287 291.893 997.893 292.631C996.498 293.369 994.898 293.738 993.094 293.738C991.289 293.738 989.689 293.383 988.295 292.672C986.928 291.934 985.848 290.963 985.055 289.76C984.289 288.557 983.715 287.285 983.332 285.945C982.977 284.578 982.799 283.17 982.799 281.721ZM1007.86 284.961V270.4H1011.71V284.305C1011.71 288.434 1013.21 290.498 1016.19 290.498C1017.99 290.498 1019.38 289.773 1020.37 288.324C1021.35 286.875 1021.85 285.166 1021.85 283.197V270.4H1025.66V293H1021.97V289.719H1021.93C1021.63 290.621 1020.93 291.523 1019.84 292.426C1018.74 293.301 1017.24 293.738 1015.32 293.738C1013.19 293.738 1011.41 293.027 1009.99 291.605C1008.57 290.156 1007.86 287.941 1007.86 284.961ZM1031.89 293V270.4H1035.59V273.395C1036.02 272.438 1036.75 271.576 1037.76 270.811C1038.77 270.045 1040.03 269.662 1041.53 269.662C1042.68 269.662 1043.72 269.854 1044.65 270.236V273.723C1043.67 273.34 1042.63 273.148 1041.53 273.148C1039.7 273.148 1038.28 273.846 1037.27 275.24C1036.28 276.635 1035.79 278.48 1035.79 280.777V293H1031.89ZM1057.9 293V270.4H1061.67V273.928H1061.71C1062.07 272.916 1062.85 271.959 1064.05 271.057C1065.28 270.127 1066.79 269.662 1068.56 269.662C1070.72 269.662 1072.47 270.332 1073.81 271.672C1075.18 273.012 1075.86 275.254 1075.86 278.398V293H1071.97V279.014C1071.97 274.939 1070.54 272.902 1067.7 272.902C1066.09 272.902 1064.69 273.572 1063.52 274.912C1062.37 276.225 1061.79 277.811 1061.79 279.67V293H1057.9ZM1080.38 281.557C1080.38 278.002 1081.35 275.131 1083.29 272.943C1085.23 270.756 1087.72 269.662 1090.75 269.662C1093.79 269.662 1096.21 270.742 1098.01 272.902C1099.84 275.062 1100.76 277.824 1100.76 281.188C1100.76 281.625 1100.73 282.227 1100.68 282.992H1084.27C1084.27 285.07 1084.86 286.861 1086.04 288.365C1087.24 289.842 1088.88 290.58 1090.96 290.58C1093.75 290.58 1095.78 289.377 1097.07 286.971L1100.31 287.996C1099.6 289.664 1098.44 291.045 1096.82 292.139C1095.24 293.205 1093.27 293.738 1090.92 293.738C1087.77 293.738 1085.23 292.631 1083.29 290.416C1081.35 288.174 1080.38 285.221 1080.38 281.557ZM1084.35 280.162H1096.86C1096.86 278.111 1096.32 276.375 1095.22 274.953C1094.13 273.531 1092.64 272.82 1090.75 272.82C1088.84 272.82 1087.31 273.559 1086.16 275.035C1085.01 276.484 1084.41 278.193 1084.35 280.162ZM1102.03 293L1110.11 281.311L1102.44 270.4H1107.04L1110.6 275.896C1110.85 276.279 1111.16 276.785 1111.55 277.414C1111.96 278.016 1112.22 278.412 1112.33 278.604H1112.49C1112.65 278.303 1112.93 277.852 1113.31 277.25C1113.69 276.648 1113.97 276.197 1114.13 275.896L1117.7 270.4H1122.29L1114.66 281.311L1122.79 293H1118.23L1114.17 286.725C1113.71 286.041 1113.15 285.152 1112.49 284.059H1112.33C1111.89 284.824 1111.33 285.713 1110.64 286.725L1106.58 293H1102.03ZM1123.85 273.641V270.4H1127.67V263.346H1131.52V270.4H1137.18V273.641H1131.52V286.15C1131.52 287.436 1131.77 288.352 1132.26 288.898C1132.75 289.445 1133.53 289.719 1134.6 289.719H1137.22V293H1134.11C1129.81 293 1127.67 290.826 1127.67 286.479V273.641H1123.85ZM1152.32 265.93V261.254H1156.95V265.93H1152.32ZM1148.26 299.07H1149.2C1151.55 299.07 1152.73 297.43 1152.73 294.148V270.4H1156.54V294.354C1156.54 296.979 1155.95 298.961 1154.78 300.301C1153.63 301.668 1151.97 302.352 1149.81 302.352H1148.26V299.07ZM1165.97 281.721C1165.97 284.482 1166.59 286.643 1167.82 288.201C1169.05 289.732 1170.55 290.498 1172.33 290.498C1174.08 290.498 1175.57 289.732 1176.8 288.201C1178.03 286.643 1178.65 284.482 1178.65 281.721C1178.65 278.904 1178.03 276.73 1176.8 275.199C1175.57 273.668 1174.08 272.902 1172.33 272.902C1170.58 272.902 1169.08 273.668 1167.82 275.199C1166.59 276.703 1165.97 278.877 1165.97 281.721ZM1162.04 281.721C1162.04 278.303 1162.93 275.445 1164.7 273.148C1166.48 270.824 1169.02 269.662 1172.33 269.662C1175.59 269.662 1178.1 270.824 1179.88 273.148C1181.68 275.445 1182.59 278.303 1182.59 281.721C1182.59 283.143 1182.39 284.523 1182.01 285.863C1181.66 287.203 1181.1 288.488 1180.33 289.719C1179.59 290.922 1178.53 291.893 1177.13 292.631C1175.74 293.369 1174.14 293.738 1172.33 293.738C1170.53 293.738 1168.93 293.383 1167.53 292.672C1166.17 291.934 1165.09 290.963 1164.29 289.76C1163.53 288.557 1162.95 287.285 1162.57 285.945C1162.21 284.578 1162.04 283.17 1162.04 281.721ZM1187.59 293V260.598H1191.4V273.928C1191.87 272.861 1192.68 271.891 1193.82 271.016C1195 270.113 1196.37 269.662 1197.93 269.662C1200.71 269.662 1203 270.742 1204.78 272.902C1206.55 275.035 1207.44 277.961 1207.44 281.68C1207.44 283.758 1207.15 285.604 1206.58 287.217C1206.01 288.83 1205.24 290.102 1204.28 291.031C1203.33 291.934 1202.31 292.604 1201.25 293.041C1200.18 293.506 1199.07 293.738 1197.93 293.738C1196.42 293.738 1195.08 293.314 1193.91 292.467C1192.73 291.592 1191.88 290.553 1191.36 289.35V293H1187.59ZM1191.32 281.68C1191.32 284.387 1191.9 286.533 1193.04 288.119C1194.22 289.705 1195.67 290.498 1197.39 290.498C1199.17 290.498 1200.63 289.732 1201.78 288.201C1202.93 286.643 1203.5 284.469 1203.5 281.68C1203.5 279 1202.94 276.867 1201.82 275.281C1200.7 273.695 1199.22 272.902 1197.39 272.902C1195.67 272.902 1194.22 273.709 1193.04 275.322C1191.9 276.908 1191.32 279.027 1191.32 281.68ZM1213.68 293V287.627H1219.42V293H1213.68Z" fill="#CDFFED"/>
<line x1="462" y1="68" x2="462" y2="393" stroke="white" stroke-width="10"/>
</svg>
