<svg width="964" height="279" viewBox="0 0 964 279" fill="none" xmlns="http://www.w3.org/2000/svg">
<rect width="964" height="279" rx="50" fill="url(#paint0_linear_20_2)"/>
<path d="M185.783 112.336C189.418 113.698 193.88 115.389 195.698 116.05C197.516 116.751 200.532 118.031 202.432 118.897L205.82 120.507V132.887V145.308H178.759H151.699L151.781 132.68L151.905 120.053L157.689 117.659C165.332 114.482 164.671 114.77 171.736 112.129C175.165 110.891 178.222 109.86 178.553 109.818C178.883 109.818 182.147 110.933 185.783 112.336Z" fill="white"/>
<path d="M144.675 177.29C144.675 206.672 144.593 230.731 144.51 230.731C126.53 230.83 96.2553 218.557 92 205.434L92.1239 181.706L92 157.977L93.8591 156.492C94.892 155.666 95.9661 154.758 96.2553 154.511C96.9577 153.809 104.146 148.321 106.584 146.629C107.658 145.845 109.724 144.359 111.211 143.327C116.788 139.324 127.241 133.052 137.859 127.357C140.379 125.995 142.775 124.675 143.229 124.427C143.684 124.138 144.18 123.932 144.386 123.891C144.551 123.849 144.675 147.908 144.675 177.29Z" fill="white"/>
<path d="M214.909 124.551C215.488 124.963 217.512 126.119 219.454 127.192C227.056 131.277 232.592 134.414 235.029 135.982C236.393 136.931 239.491 138.87 241.846 140.356C246.515 143.286 258.62 152.282 261.635 155.006C262.668 155.955 263.908 156.987 264.403 157.234L265.312 157.73L265.23 181.541L265.312 205.434C261.925 219.723 227.407 230.607 213.381 230.607C213.298 230.483 213.215 185.626 213.257 131.154C213.257 127.151 213.381 123.849 213.587 123.849C213.752 123.849 214.372 124.179 214.909 124.551Z" fill="white"/>
<path d="M144.593 82.087L144.675 116.009L139.346 118.691C130.67 123.024 114.888 132.185 109.558 135.94C108.071 137.013 105.84 138.54 104.601 139.407C101.502 141.512 94.6854 146.587 92.9502 148.114C92.2479 148.692 92.2066 146.918 92.2066 110.974V73.2146C101.606 58.0799 137.776 48.0416 144.056 48.0416C144.345 48.1654 144.51 59.9678 144.593 82.087Z" fill="white"/>
<path d="M265.23 73.2146V111.18L265.312 149.063L261.718 146.051C255.769 141.058 251.018 137.715 239.656 130.452C235.69 127.935 221.148 119.97 216.686 117.866L213.257 116.256V82.0457C213.257 62.2375 213.422 47.9178 213.629 48.0004C219.875 48.0004 254.643 55.8309 265.23 73.2146Z" fill="white"/>
<path d="M385 119V78H389.686V96.0641H411.243V78H415.929V119H411.243V99.7316H389.686V119H385Z" fill="white"/>
<path d="M424.833 100.553V96.8304H452.481V100.553H424.833Z" fill="white"/>
<path d="M466.13 103.673H482.649L477.494 89.8785C477.181 89.0392 476.674 87.7072 475.971 85.8825C475.307 84.0214 474.838 82.7259 474.565 81.996H474.213C472.573 86.4846 471.616 89.1121 471.343 89.8785L466.13 103.673ZM455.117 119L471.519 78H477.259L493.661 119H488.506L484.054 107.176H464.724L460.272 119H455.117Z" fill="white"/>
<path d="M504.205 97.5421H516.038C518.967 97.5421 521.212 96.8122 522.774 95.3525C524.375 93.8927 525.176 91.9586 525.176 89.5501C525.176 87.2145 524.336 85.3351 522.657 83.9119C521.017 82.4522 518.654 81.7223 515.569 81.7223H504.205V97.5421ZM499.519 119V78H516.623C520.919 78 524.219 79.0948 526.523 81.2844C528.827 83.4375 529.979 86.1015 529.979 89.2764C529.979 92.1593 529.198 94.4949 527.636 96.283C526.074 98.0712 524.356 99.2025 522.481 99.6769C524.121 100.48 525.312 101.465 526.054 102.633C526.796 103.801 527.402 105.425 527.87 107.505C528.378 109.548 528.729 110.953 528.925 111.72C529.159 112.449 529.55 113.508 530.096 114.895C530.682 116.281 531.385 117.65 532.205 119H526.933C526.269 117.832 525.664 116.591 525.117 115.278C524.609 113.927 524.238 112.833 524.004 111.993C523.77 111.117 523.418 109.731 522.95 107.833C522.442 105.789 521.661 104.184 520.607 103.016C519.591 101.848 517.951 101.264 515.686 101.264H504.205V119H499.519Z" fill="white"/>
<path d="M539.117 119V78H566.531V81.7223H543.803V95.9546H564.305V99.6222H543.803V115.278H567V119H539.117Z" fill="white"/>
<path d="M385 167.541V164.869H401.198V167.541H394.52V189.434H391.678V167.541H385Z" fill="#CDFFED"/>
<path d="M403.864 189.434V164H406.588V174.206H406.646C407.056 173.347 407.681 172.618 408.521 172.017C409.38 171.416 410.318 171.115 411.333 171.115C412.934 171.115 414.213 171.652 415.17 172.725C416.147 173.798 416.635 175.547 416.635 177.973V189.434H413.911V178.423C413.911 175.247 412.885 173.659 410.835 173.659C409.683 173.659 408.687 174.195 407.847 175.268C407.008 176.32 406.588 177.576 406.588 179.035V189.434H403.864Z" fill="#CDFFED"/>
<path d="M419.886 180.452C419.886 177.661 420.579 175.408 421.966 173.691C423.352 171.974 425.129 171.115 427.297 171.115C429.464 171.115 431.193 171.963 432.481 173.659C433.79 175.354 434.444 177.522 434.444 180.162C434.444 180.505 434.424 180.978 434.385 181.579H422.669C422.669 183.21 423.089 184.616 423.928 185.796C424.788 186.955 425.959 187.535 427.443 187.535C429.435 187.535 430.89 186.59 431.808 184.701L434.122 185.506C433.614 186.816 432.784 187.9 431.632 188.758C430.499 189.595 429.093 190.014 427.414 190.014C425.168 190.014 423.352 189.144 421.966 187.406C420.579 185.646 419.886 183.328 419.886 180.452ZM422.727 179.357H431.661C431.661 177.747 431.271 176.384 430.49 175.268C429.709 174.152 428.644 173.594 427.297 173.594C425.93 173.594 424.836 174.174 424.016 175.333C423.196 176.47 422.766 177.812 422.727 179.357Z" fill="#CDFFED"/>
<path d="M443.876 185.86L445.897 184.573C447.049 186.526 448.592 187.502 450.525 187.502C451.619 187.502 452.497 187.277 453.161 186.826C453.825 186.376 454.157 185.742 454.157 184.927C454.157 184.626 454.108 184.347 454.011 184.09C453.933 183.832 453.757 183.596 453.483 183.381C453.23 183.145 453.005 182.963 452.81 182.834C452.634 182.684 452.292 182.512 451.785 182.319C451.296 182.126 450.925 181.986 450.671 181.9C450.437 181.815 449.988 181.654 449.324 181.418C448.621 181.181 448.025 180.945 447.537 180.709C447.069 180.452 446.561 180.13 446.014 179.743C445.487 179.336 445.087 178.831 444.813 178.23C444.54 177.629 444.403 176.942 444.403 176.17C444.403 174.667 444.96 173.455 446.073 172.532C447.205 171.587 448.689 171.115 450.525 171.115C451.853 171.115 453.083 171.501 454.216 172.274C455.348 173.025 456.169 173.948 456.676 175.043L454.831 176.331C454.382 175.58 453.786 174.946 453.044 174.431C452.302 173.895 451.472 173.626 450.554 173.626C449.461 173.626 448.621 173.862 448.035 174.335C447.469 174.785 447.186 175.408 447.186 176.202C447.186 176.674 447.293 177.103 447.508 177.49C447.742 177.855 448.113 178.187 448.621 178.488C449.129 178.767 449.558 178.981 449.91 179.132C450.281 179.282 450.818 179.475 451.521 179.711C452.243 179.947 452.868 180.194 453.396 180.452C453.942 180.709 454.509 181.042 455.094 181.45C455.68 181.858 456.129 182.362 456.442 182.963C456.774 183.564 456.94 184.229 456.94 184.959C456.94 186.376 456.374 187.578 455.241 188.565C454.108 189.531 452.546 190.014 450.554 190.014C449.07 190.014 447.752 189.649 446.6 188.919C445.448 188.189 444.54 187.17 443.876 185.86Z" fill="#CDFFED"/>
<path d="M460.133 189.434V171.695H462.827V174.141C463.12 173.412 463.648 172.725 464.409 172.081C465.171 171.437 466.118 171.115 467.25 171.115C469.145 171.115 470.492 172.339 471.293 174.785C471.41 174.485 471.576 174.174 471.791 173.852C472.005 173.508 472.308 173.111 472.699 172.66C473.089 172.21 473.607 171.845 474.251 171.566C474.915 171.265 475.628 171.115 476.389 171.115C479.572 171.115 481.164 173.401 481.164 177.973V189.434H478.41V178.166C478.41 176.685 478.225 175.569 477.854 174.818C477.483 174.045 476.79 173.659 475.774 173.659C474.7 173.659 473.802 174.163 473.079 175.172C472.357 176.159 471.996 177.404 471.996 178.906V189.434H469.301V178.101C469.301 175.14 468.412 173.659 466.635 173.659C465.483 173.659 464.575 174.131 463.911 175.075C463.247 176.02 462.915 177.254 462.915 178.778V189.434H460.133Z" fill="#CDFFED"/>
<path d="M487.139 184.734C487.139 185.506 487.432 186.161 488.018 186.698C488.604 187.234 489.395 187.502 490.391 187.502C491.719 187.502 492.841 187.03 493.759 186.086C494.697 185.141 495.165 183.929 495.165 182.448V180.259C494.384 180.473 493.115 180.731 491.357 181.031C488.545 181.546 487.139 182.78 487.139 184.734ZM484.386 184.991C484.386 181.664 486.68 179.615 491.269 178.842C493.261 178.499 494.56 178.22 495.165 178.005V177.007C495.165 175.977 494.833 175.14 494.169 174.496C493.525 173.852 492.607 173.53 491.416 173.53C490.479 173.53 489.571 173.777 488.692 174.27C487.833 174.742 487.11 175.376 486.524 176.17L484.796 174.56C485.597 173.508 486.573 172.671 487.725 172.049C488.877 171.426 490.088 171.115 491.357 171.115C495.712 171.115 497.889 173.476 497.889 178.198V189.434H495.253V186.762C494.921 187.642 494.286 188.404 493.349 189.048C492.412 189.692 491.309 190.014 490.039 190.014C488.262 190.014 486.876 189.552 485.88 188.629C484.884 187.685 484.386 186.472 484.386 184.991Z" fill="#CDFFED"/>
<path d="M502.166 189.434V171.695H504.802V174.045C505.115 173.294 505.632 172.618 506.355 172.017C507.077 171.416 507.975 171.115 509.049 171.115C509.87 171.115 510.612 171.265 511.276 171.566V174.302C510.573 174.002 509.83 173.852 509.049 173.852C507.741 173.852 506.726 174.399 506.003 175.494C505.3 176.588 504.949 178.037 504.949 179.84V189.434H502.166Z" fill="#CDFFED"/>
<path d="M512.242 174.238V171.695H514.966V166.157H517.72V171.695H521.762V174.238H517.72V184.058C517.72 185.066 517.895 185.785 518.247 186.215C518.598 186.644 519.155 186.859 519.917 186.859H521.791V189.434H519.565C516.499 189.434 514.966 187.728 514.966 184.315V174.238H512.242Z" fill="#CDFFED"/>
<path d="M530.227 171.695H533.244L535.382 181.965C535.48 182.437 535.617 183.178 535.792 184.186C535.968 185.195 536.115 186 536.232 186.601H536.349C536.798 184.326 537.101 182.78 537.257 181.965L539.454 171.695H542.559L544.785 182.094C544.863 182.48 545 183.178 545.195 184.186C545.41 185.174 545.576 185.979 545.693 186.601H545.81C545.869 186.258 545.996 185.549 546.191 184.476C546.386 183.381 546.542 182.544 546.66 181.965L548.769 171.695H551.786L547.363 189.434H544.111L541.914 179.454C541.465 177.157 541.182 175.644 541.065 174.914H540.948C540.616 176.781 540.333 178.295 540.098 179.454L537.931 189.434H534.65L530.227 171.695Z" fill="#CDFFED"/>
<path d="M555.652 184.734C555.652 185.506 555.945 186.161 556.531 186.698C557.117 187.234 557.908 187.502 558.903 187.502C560.231 187.502 561.354 187.03 562.272 186.086C563.209 185.141 563.678 183.929 563.678 182.448V180.259C562.897 180.473 561.628 180.731 559.87 181.031C557.058 181.546 555.652 182.78 555.652 184.734ZM552.899 184.991C552.899 181.664 555.193 179.615 559.782 178.842C561.774 178.499 563.073 178.22 563.678 178.005V177.007C563.678 175.977 563.346 175.14 562.682 174.496C562.038 173.852 561.12 173.53 559.929 173.53C558.991 173.53 558.083 173.777 557.205 174.27C556.345 174.742 555.623 175.376 555.037 176.17L553.309 174.56C554.109 173.508 555.086 172.671 556.238 172.049C557.39 171.426 558.601 171.115 559.87 171.115C564.225 171.115 566.402 173.476 566.402 178.198V189.434H563.766V186.762C563.434 187.642 562.799 188.404 561.862 189.048C560.925 189.692 559.821 190.014 558.552 190.014C556.775 190.014 555.388 189.552 554.393 188.629C553.397 187.685 552.899 186.472 552.899 184.991Z" fill="#CDFFED"/>
<path d="M568.687 171.695H571.792L574.926 181.643C575.492 183.446 575.912 184.895 576.185 185.989H576.303C576.869 183.929 577.269 182.48 577.504 181.643L580.462 171.695H583.538L576.683 192.171C576.098 193.952 575.375 195.197 574.516 195.905C573.676 196.635 572.641 197 571.411 197H570.444V194.489H570.972C571.772 194.489 572.436 194.263 572.963 193.813C573.491 193.362 573.94 192.557 574.311 191.398L574.897 189.434L568.687 171.695Z" fill="#CDFFED"/>
<path d="M591.622 174.238V171.695H594.346V166.157H597.1V171.695H601.142V174.238H597.1V184.058C597.1 185.066 597.275 185.785 597.627 186.215C597.978 186.644 598.535 186.859 599.296 186.859H601.171V189.434H598.945C595.879 189.434 594.346 187.728 594.346 184.315V174.238H591.622Z" fill="#CDFFED"/>
<path d="M606.063 180.58C606.063 182.748 606.502 184.444 607.381 185.667C608.26 186.869 609.334 187.47 610.603 187.47C611.853 187.47 612.917 186.869 613.796 185.667C614.674 184.444 615.114 182.748 615.114 180.58C615.114 178.37 614.674 176.663 613.796 175.461C612.917 174.26 611.853 173.659 610.603 173.659C609.353 173.659 608.279 174.26 607.381 175.461C606.502 176.642 606.063 178.348 606.063 180.58ZM603.251 180.58C603.251 177.898 603.885 175.655 605.155 173.852C606.424 172.027 608.24 171.115 610.603 171.115C612.927 171.115 614.723 172.027 615.993 173.852C617.281 175.655 617.926 177.898 617.926 180.58C617.926 181.697 617.789 182.78 617.516 183.832C617.262 184.884 616.862 185.893 616.315 186.859C615.787 187.803 615.026 188.565 614.03 189.144C613.034 189.724 611.892 190.014 610.603 190.014C609.314 190.014 608.172 189.735 607.176 189.177C606.199 188.597 605.428 187.835 604.862 186.891C604.315 185.946 603.905 184.948 603.632 183.897C603.378 182.823 603.251 181.718 603.251 180.58Z" fill="#CDFFED"/>
<path d="M627.123 174.238V171.695H629.789V169.248C629.789 167.466 630.189 166.146 630.99 165.288C631.81 164.429 632.933 164 634.358 164H636.614V166.511H634.739C633.275 166.511 632.542 167.509 632.542 169.505V171.695H636.233V174.238H632.542V189.434H629.789V174.238H627.123Z" fill="#CDFFED"/>
<path d="M639.191 168.185V164.515H642.443V168.185H639.191ZM639.484 189.434V171.695H642.179V189.434H639.484Z" fill="#CDFFED"/>
<path d="M647.129 189.434V171.695H649.824V174.463H649.853C650.107 173.669 650.664 172.918 651.523 172.21C652.402 171.48 653.476 171.115 654.745 171.115C656.288 171.115 657.538 171.641 658.494 172.693C659.471 173.744 659.959 175.504 659.959 177.973V189.434H657.176V178.456C657.176 175.258 656.161 173.659 654.13 173.659C652.978 173.659 651.982 174.184 651.142 175.236C650.322 176.266 649.912 177.511 649.912 178.971V189.434H647.129Z" fill="#CDFFED"/>
<path d="M663.181 180.548C663.181 177.629 663.826 175.333 665.114 173.659C666.403 171.963 668.034 171.115 670.006 171.115C671.1 171.115 672.056 171.448 672.877 172.113C673.697 172.779 674.283 173.54 674.634 174.399V164H677.358V189.434H674.722V186.537C674.331 187.524 673.716 188.35 672.877 189.016C672.037 189.681 671.08 190.014 670.006 190.014C669.186 190.014 668.385 189.831 667.604 189.466C666.823 189.123 666.091 188.597 665.407 187.889C664.743 187.159 664.206 186.161 663.796 184.895C663.386 183.628 663.181 182.18 663.181 180.548ZM665.993 180.548C665.993 182.673 666.393 184.358 667.194 185.603C667.995 186.848 669.049 187.47 670.358 187.47C671.568 187.47 672.593 186.848 673.433 185.603C674.273 184.358 674.693 182.673 674.693 180.548C674.693 178.466 674.273 176.803 673.433 175.558C672.613 174.292 671.588 173.659 670.358 173.659C669.03 173.659 667.965 174.292 667.165 175.558C666.384 176.824 665.993 178.488 665.993 180.548Z" fill="#CDFFED"/>
<path d="M687.317 171.695H690.422L693.556 181.643C694.123 183.446 694.542 184.895 694.816 185.989H694.933C695.499 183.929 695.9 182.48 696.134 181.643L699.092 171.695H702.168L695.314 192.171C694.728 193.952 694.005 195.197 693.146 195.905C692.307 196.635 691.272 197 690.041 197H689.075V194.489H689.602C690.403 194.489 691.067 194.263 691.594 193.813C692.121 193.362 692.57 192.557 692.941 191.398L693.527 189.434L687.317 171.695Z" fill="#CDFFED"/>
<path d="M705.829 180.58C705.829 182.748 706.269 184.444 707.148 185.667C708.026 186.869 709.1 187.47 710.37 187.47C711.619 187.47 712.684 186.869 713.562 185.667C714.441 184.444 714.881 182.748 714.881 180.58C714.881 178.37 714.441 176.663 713.562 175.461C712.684 174.26 711.619 173.659 710.37 173.659C709.12 173.659 708.046 174.26 707.148 175.461C706.269 176.642 705.829 178.348 705.829 180.58ZM703.017 180.58C703.017 177.898 703.652 175.655 704.921 173.852C706.191 172.027 708.007 171.115 710.37 171.115C712.693 171.115 714.49 172.027 715.759 173.852C717.048 175.655 717.693 177.898 717.693 180.58C717.693 181.697 717.556 182.78 717.282 183.832C717.029 184.884 716.628 185.893 716.081 186.859C715.554 187.803 714.793 188.565 713.797 189.144C712.801 189.724 711.658 190.014 710.37 190.014C709.081 190.014 707.938 189.735 706.943 189.177C705.966 188.597 705.195 187.835 704.629 186.891C704.082 185.946 703.672 184.948 703.398 183.897C703.144 182.823 703.017 181.718 703.017 180.58Z" fill="#CDFFED"/>
<path d="M720.915 183.124V171.695H723.668V182.609C723.668 185.85 724.732 187.47 726.861 187.47C728.15 187.47 729.145 186.901 729.848 185.764C730.551 184.626 730.903 183.285 730.903 181.74V171.695H733.627V189.434H730.991V186.859H730.962C730.747 187.567 730.249 188.275 729.468 188.983C728.687 189.67 727.613 190.014 726.246 190.014C724.722 190.014 723.453 189.456 722.438 188.34C721.422 187.202 720.915 185.463 720.915 183.124Z" fill="#CDFFED"/>
<path d="M738.079 189.434V171.695H740.716V174.045C741.028 173.294 741.546 172.618 742.268 172.017C742.991 171.416 743.889 171.115 744.963 171.115C745.783 171.115 746.525 171.265 747.189 171.566V174.302C746.486 174.002 745.744 173.852 744.963 173.852C743.655 173.852 742.639 174.399 741.917 175.494C741.214 176.588 740.862 178.037 740.862 179.84V189.434H738.079Z" fill="#CDFFED"/>
<path d="M756.65 189.434V171.695H759.345V174.463H759.374C759.628 173.669 760.185 172.918 761.044 172.21C761.923 171.48 762.997 171.115 764.266 171.115C765.809 171.115 767.058 171.641 768.015 172.693C768.992 173.744 769.48 175.504 769.48 177.973V189.434H766.697V178.456C766.697 175.258 765.682 173.659 763.651 173.659C762.499 173.659 761.503 174.184 760.663 175.236C759.843 176.266 759.433 177.511 759.433 178.971V189.434H756.65Z" fill="#CDFFED"/>
<path d="M772.702 180.452C772.702 177.661 773.395 175.408 774.782 173.691C776.168 171.974 777.945 171.115 780.113 171.115C782.28 171.115 784.008 171.963 785.297 173.659C786.606 175.354 787.26 177.522 787.26 180.162C787.26 180.505 787.24 180.978 787.201 181.579H775.485C775.485 183.21 775.904 184.616 776.744 185.796C777.603 186.955 778.775 187.535 780.259 187.535C782.251 187.535 783.706 186.59 784.624 184.701L786.938 185.506C786.43 186.816 785.6 187.9 784.448 188.758C783.315 189.595 781.909 190.014 780.23 190.014C777.984 190.014 776.168 189.144 774.782 187.406C773.395 185.646 772.702 183.328 772.702 180.452ZM775.543 179.357H784.477C784.477 177.747 784.087 176.384 783.305 175.268C782.524 174.152 781.46 173.594 780.113 173.594C778.746 173.594 777.652 174.174 776.832 175.333C776.012 176.47 775.582 177.812 775.543 179.357Z" fill="#CDFFED"/>
<path d="M788.168 189.434L793.938 180.259L788.461 171.695H791.741L794.29 176.009C794.465 176.309 794.69 176.706 794.963 177.2C795.256 177.672 795.442 177.983 795.52 178.134H795.637C795.754 177.898 795.95 177.543 796.223 177.071C796.496 176.599 796.692 176.245 796.809 176.009L799.357 171.695H802.638L797.19 180.259L802.989 189.434H799.738L796.838 184.508C796.506 183.972 796.106 183.274 795.637 182.416H795.52C795.208 183.017 794.807 183.714 794.319 184.508L791.419 189.434H788.168Z" fill="#CDFFED"/>
<path d="M803.751 174.238V171.695H806.475V166.157H809.228V171.695H813.271V174.238H809.228V184.058C809.228 185.066 809.404 185.785 809.756 186.215C810.107 186.644 810.664 186.859 811.425 186.859H813.3V189.434H811.074C808.008 189.434 806.475 187.728 806.475 184.315V174.238H803.751Z" fill="#CDFFED"/>
<path d="M824.079 168.185V164.515H827.389V168.185H824.079ZM821.179 194.199H821.853C823.532 194.199 824.372 192.911 824.372 190.336V171.695H827.096V190.497C827.096 192.557 826.676 194.113 825.837 195.165C825.016 196.238 823.835 196.775 822.292 196.775H821.179V194.199Z" fill="#CDFFED"/>
<path d="M833.833 180.58C833.833 182.748 834.273 184.444 835.151 185.667C836.03 186.869 837.104 187.47 838.373 187.47C839.623 187.47 840.687 186.869 841.566 185.667C842.445 184.444 842.884 182.748 842.884 180.58C842.884 178.37 842.445 176.663 841.566 175.461C840.687 174.26 839.623 173.659 838.373 173.659C837.124 173.659 836.05 174.26 835.151 175.461C834.273 176.642 833.833 178.348 833.833 180.58ZM831.021 180.58C831.021 177.898 831.656 175.655 832.925 173.852C834.194 172.027 836.011 171.115 838.373 171.115C840.697 171.115 842.494 172.027 843.763 173.852C845.052 175.655 845.696 177.898 845.696 180.58C845.696 181.697 845.56 182.78 845.286 183.832C845.032 184.884 844.632 185.893 844.085 186.859C843.558 187.803 842.796 188.565 841.8 189.144C840.805 189.724 839.662 190.014 838.373 190.014C837.085 190.014 835.942 189.735 834.946 189.177C833.97 188.597 833.199 187.835 832.632 186.891C832.085 185.946 831.675 184.948 831.402 183.897C831.148 182.823 831.021 181.718 831.021 180.58Z" fill="#CDFFED"/>
<path d="M849.27 189.434V164H851.994V174.463C852.326 173.626 852.902 172.864 853.722 172.178C854.562 171.469 855.538 171.115 856.651 171.115C858.643 171.115 860.274 171.963 861.543 173.659C862.812 175.333 863.447 177.629 863.447 180.548C863.447 182.18 863.242 183.628 862.832 184.895C862.422 186.161 861.875 187.159 861.191 187.889C860.508 188.597 859.785 189.123 859.024 189.466C858.262 189.831 857.471 190.014 856.651 190.014C855.577 190.014 854.62 189.681 853.781 189.016C852.941 188.329 852.336 187.513 851.965 186.569V189.434H849.27ZM851.935 180.548C851.935 182.673 852.345 184.358 853.166 185.603C854.005 186.848 855.04 187.47 856.27 187.47C857.54 187.47 858.584 186.869 859.405 185.667C860.225 184.444 860.635 182.738 860.635 180.548C860.635 178.445 860.235 176.771 859.434 175.526C858.633 174.281 857.579 173.659 856.27 173.659C855.04 173.659 854.005 174.292 853.166 175.558C852.345 176.803 851.935 178.466 851.935 180.548Z" fill="#CDFFED"/>
<path d="M867.899 189.434V185.217H872V189.434H867.899Z" fill="#CDFFED"/>
<line x1="327.25" y1="36" x2="327.25" y2="242" stroke="white" stroke-width="4.5"/>
<defs>
<linearGradient id="paint0_linear_20_2" x1="964" y1="279" x2="482" y2="279" gradientUnits="userSpaceOnUse">
<stop stop-color="#005358"/>
<stop offset="1" stop-color="#002F32"/>
</linearGradient>
</defs>
</svg>
